# xmcd
# Copyright (C) 1995-1998 Ti Kan
#
# Track frame offsets:
#       150
#       13155
#       34590
#       52644
#       72242
#       90853
#       107255
#       121602
#       139565
#       159056
#       177194
#       195492
#       211458
#       227817
#       244701
#       260254
#       280640
#       301661
#       315458
#
# Disc length: 4413 seconds
#
# Revision: 0
# Processed by: cddbd v1.5.2PL0 Copyright (c) Steve Scherf et al.
# Submitted via: CD-Transfer v1.0
#
DISCID=d9113b13
DTITLE=Bobby - Hurra! Mit Bobby Ab Nach Afrika
DYEAR=1900
DGENRE=
TTITLE0=Heut Geht´s Ab Nach Afrika
TTITLE1=Hey, Hey, Du
TTITLE2=Wir Fleigen Wie Die Fliegen
TTITLE3=Chico, Kunterbunter Papgei
TTITLE4=Unser Nilpferd Dagolbert
TTITLE5=Durch Die Wüste Gehn
TTITLE6=Ich Spreche Italeinisch
TTITLE7=Auch Krokodile Tragen Eine Brille
TTITLE8=Alle Kinder Lernen Lesen
TTITLE9=He-Ho-He, Die Piraten Kommen
TTITLE10=Schli,Schl,Schlu-Schleichschlangentanz
TTITLE11=Der Dschungelschrei
TTITLE12=Du Bist Ein Glückspilz
TTITLE13=Badewannenrock 'n' Roll
TTITLE14=Affenababy, Hauen Auf Die Pauke
TTITLE15=Ach, Wenn Du Krank Bist
TTITLE16=Ein Regentropfen Auf Reisen
TTITLE17=Das Trommelfest
TTITLE18=Tschüss Und Ciao
EXTD=
EXTT0=
EXTT1=
EXTT2=
EXTT3=
EXTT4=
EXTT5=
EXTT6=
EXTT7=
EXTT8=
EXTT9=
EXTT10=
EXTT11=
EXTT12=
EXTT13=
EXTT14=
EXTT15=
EXTT16=
EXTT17=
EXTT18=
PLAYORDER=
